<svg width="528.7089599609375px" height="113.6px" xmlns="http://www.w3.org/2000/svg" viewBox="-14.354479980468739 18.200000000000003 528.7089599609375 113.6" style="background: rgba(0, 0, 0, 0);" preserveAspectRatio="xMidYMid"><defs><linearGradient id="editing-sticker-gradient" x1="0.5" y1="0.2" x2="0.5" y2="0.8"><stop offset="0" stop-color="#fd9"></stop><stop offset="1" stop-color="#9df"></stop></linearGradient><filter id="editing-sticker" x="-100%" y="-100%" width="300%" height="300%"><feMorphology operator="erode" radius="1" in="SourceAlpha" result="alpha-erode"></feMorphology><feConvolveMatrix order="3,3" divisor="1" kernelMatrix="0 1 0 1 1 1 0 1 0" in="alpha-erode" result="alpha-round"></feConvolveMatrix><feMorphology operator="dilate" radius="3.5" in="alpha-round" result="dilate-shadow"></feMorphology><feGaussianBlur in="dilate-shadow" stdDeviation="1.5" result="shadow"></feGaussianBlur><feFlood flood-color="#fff" result="flood-sticker"></feFlood><feComposite operator="in" in="flood-sticker" in2="alpha-round" result="comp-sticker"></feComposite><feMorphology operator="dilate" radius="3" in="comp-sticker" result="morph-sticker"></feMorphology><feConvolveMatrix order="3,3" divisor="1" kernelMatrix="0 1 0 1 1 1 0 1 0" in="morph-sticker" result="sticker"></feConvolveMatrix><feMerge><feMergeNode in="shadow"></feMergeNode><feMergeNode in="sticker"></feMergeNode><feMergeNode in="SourceGraphic"></feMergeNode></feMerge></filter></defs><g filter="url(#editing-sticker)"><g transform="translate(65.1230399608612, 102.14000129699707)"><path d="M26.90 1.18L26.90 1.18L26.90 1.18Q19.35 1.18 18.64-9.56L18.64-9.56L8.50-9.56L8.50-9.56Q7.32-6.84 6.49-4.48L6.49-4.48L4.96 0L-3.30 0L15.28-38.94L27.97-38.94L30.44-10.27L30.44-10.27Q31.03-4.07 33.39-2.24L33.39-2.24L33.39-2.24Q31.68 1.18 26.90 1.18ZM13.57-21.36L10.33-13.87L18.47-13.87L17.76-29.03L17.76-30.62L13.57-21.36ZM54.46-20.71L54.46-20.71L54.46-20.71Q55.28-22.89 55.28-24.78L55.28-24.78L55.28-24.78Q55.28-28.26 52.45-28.26L52.45-28.26L52.45-28.26Q50.98-28.26 49.77-26.93L49.77-26.93L49.77-26.93Q48.56-25.61 48.56-23.95L48.56-23.95L48.56-23.95Q48.56-22.77 49.50-21.83L49.50-21.83L49.50-21.83Q50.86-20.53 54.34-18.41L54.34-18.41L54.34-18.41Q57.82-16.28 59.15-14.54L59.15-14.54L59.15-14.54Q60.48-12.80 60.48-10.41L60.48-10.41L60.48-10.41Q60.48-8.02 59.32-5.84L59.32-5.84L59.32-5.84Q58.17-3.66 56.11-2.12L56.11-2.12L56.11-2.12Q51.68 1.18 44.60 1.18L44.60 1.18L44.60 1.18Q40.77 1.18 37.82-0.83L37.82-0.83L37.82-0.83Q34.87-2.77 34.87-5.07L34.87-5.07L34.87-5.07Q34.87-7.38 36.55-8.73L36.55-8.73L36.55-8.73Q38.23-10.09 40.71-10.09L40.71-10.09L40.71-10.09Q43.19-10.09 44.72-9.15L44.72-9.15L44.72-9.15Q43.96-7.20 43.96-5.90L43.96-5.90L43.96-5.90Q43.96-2.01 47.26-2.01L47.26-2.01L47.26-2.01Q48.68-2.01 49.62-2.89L49.62-2.89L49.62-2.89Q50.56-3.78 50.56-5.31L50.56-5.31L50.56-5.31Q50.56-8.32 45.49-11.51L45.49-11.51L45.49-11.51Q41.36-14.22 40.42-15.28L40.42-15.28L40.42-15.28Q38.82-17.17 38.82-19.53L38.82-19.53L38.82-19.53Q38.82-21.89 39.94-24.13L39.94-24.13L39.94-24.13Q41.06-26.37 43.13-27.97L43.13-27.97L43.13-27.97Q47.44-31.27 54.93-31.27L54.93-31.27L54.93-31.27Q58.76-31.27 61.04-29.74L61.04-29.74L61.04-29.74Q63.31-28.20 63.31-25.61L63.31-25.61L63.31-25.61Q63.31-23.01 61.74-21.54L61.74-21.54L61.74-21.54Q60.18-20.06 57.35-20.06L57.35-20.06L57.35-20.06Q55.40-20.06 54.46-20.71ZM66.43-5.90L66.43-5.90L66.43-5.90Q66.43-7.49 67.26-11.51L67.26-11.51L70.39-27.44L66.91-27.44L67.14-29.21L67.14-29.21Q74.22-31.33 81.07-36.52L81.07-36.52L83.90-36.52L82.48-30.09L87.08-30.09L86.55-27.44L82.01-27.44L79.00-11.51L79.00-11.51Q78.23-7.85 78.23-6.61L78.23-6.61L78.23-6.61Q78.23-3.78 80.71-3.19L80.71-3.19L80.71-3.19Q80.12-1.18 78.00 0L78.00 0L78.00 0Q75.87 1.18 72.87 1.18L72.87 1.18L72.87 1.18Q69.86 1.18 68.15-0.71L68.15-0.71L68.15-0.71Q66.43-2.60 66.43-5.90ZM105.26-16.58L105.26-16.58L105.26-16.58Q107.38-20.36 107.38-24.19L107.38-24.19L107.38-24.19Q107.38-26.73 105.55-26.73L105.55-26.73L105.55-26.73Q104.14-26.73 102.66-24.31L102.66-24.31L102.66-24.31Q101.13-21.89 100.65-18.76L100.65-18.76L97.59 0L85.37 1.18L91.39-30.09L101.13-31.27L100.06-25.31L100.06-25.31Q102.96-31.27 109.45-31.27L109.45-31.27L109.45-31.27Q112.87-31.27 114.73-29.50L114.73-29.50L114.73-29.50Q116.58-27.73 116.58-24.10L116.58-24.10L116.58-24.10Q116.58-20.47 114.19-18.17L114.19-18.17L114.19-18.17Q111.81-15.87 107.73-15.87L107.73-15.87L107.73-15.87Q105.96-15.87 105.26-16.58ZM130.39 1.18L130.39 1.18L130.39 1.18Q117.41 1.18 117.41-11.03L117.41-11.03L117.41-11.03Q117.41-19.71 122.19-25.31L122.19-25.31L122.19-25.31Q127.26-31.27 136.05-31.27L136.05-31.27L136.05-31.27Q142.43-31.27 145.67-28.32L145.67-28.32L145.67-28.32Q148.92-25.37 148.92-19.18L148.92-19.18L148.92-19.18Q148.92-9.74 143.84-4.25L143.84-4.25L143.84-4.25Q138.89 1.18 130.39 1.18ZM131.92-24.49L131.92-24.49L131.92-24.49Q131.22-22.89 130.66-20.50L130.66-20.50L130.66-20.50Q130.10-18.11 129.39-14.34L129.39-14.34L129.39-14.34Q128.68-10.56 128.68-5.90L128.68-5.90L128.68-5.90Q128.68-4.37 129.18-3.36L129.18-3.36L129.18-3.36Q129.68-2.36 131.04-2.36L131.04-2.36L131.04-2.36Q132.40-2.36 133.25-3.01L133.25-3.01L133.25-3.01Q134.11-3.66 134.76-5.19L134.76-5.19L134.76-5.19Q135.94-7.91 136.88-12.95L136.88-12.95L136.88-12.95Q137.82-18.00 137.91-20.18L137.91-20.18L137.91-20.18Q138.00-22.36 138.00-23.98L138.00-23.98L138.00-23.98Q138.00-25.61 137.53-26.67L137.53-26.67L137.53-26.67Q137.06-27.73 135.73-27.73L135.73-27.73L135.73-27.73Q134.40-27.73 133.52-26.90L133.52-26.90L133.52-26.90Q132.63-26.08 131.92-24.49ZM193.52-24.54L193.52-24.54L193.52-24.54Q193.52-22.07 191.46-20.53L191.46-20.53L191.46-20.53Q189.39-19.00 186.03-19.00L186.03-19.00L186.03-19.00Q184.61-19.00 183.78-19.41L183.78-19.41L183.78-19.41Q184.43-20.95 184.64-22.86L184.64-22.86L184.64-22.86Q184.85-24.78 184.85-25.31L184.85-25.31L184.85-25.31Q184.85-27.79 183.14-27.79L183.14-27.79L183.14-27.79Q181.96-27.79 180.63-26.31L180.63-26.31L180.63-26.31Q179.30-24.84 178.18-22.54L178.18-22.54L178.18-22.54Q175.70-17.23 175.70-11.86L175.70-11.86L175.70-11.86Q175.70-8.91 176.82-7.58L176.82-7.58L176.82-7.58Q177.94-6.25 180.42-6.25L180.42-6.25L180.42-6.25Q183.84-6.25 186.56-9.09L186.56-9.09L186.56-9.09Q187.32-9.97 187.74-10.97L187.74-10.97L187.74-10.97Q189.98-9.79 189.98-6.55L189.98-6.55L189.98-6.55Q189.98-3.25 186.32-1.06L186.32-1.06L186.32-1.06Q182.55 1.18 176.53 1.18L176.53 1.18L176.53 1.18Q164.55 1.18 164.55-11.51L164.55-11.51L164.55-11.51Q164.55-20.77 169.80-26.08L169.80-26.08L169.80-26.08Q174.88-31.27 184.20-31.27L184.20-31.27L184.20-31.27Q193.52-31.27 193.52-24.54ZM207.98 1.18L207.98 1.18L207.98 1.18Q195.00 1.18 195.00-11.03L195.00-11.03L195.00-11.03Q195.00-19.71 199.77-25.31L199.77-25.31L199.77-25.31Q204.85-31.27 213.64-31.27L213.64-31.27L213.64-31.27Q220.01-31.27 223.26-28.32L223.26-28.32L223.26-28.32Q226.50-25.37 226.50-19.18L226.50-19.18L226.50-19.18Q226.50-9.74 221.43-4.25L221.43-4.25L221.43-4.25Q216.47 1.18 207.98 1.18ZM209.51-24.49L209.51-24.49L209.51-24.49Q208.80-22.89 208.24-20.50L208.24-20.50L208.24-20.50Q207.68-18.11 206.97-14.34L206.97-14.34L206.97-14.34Q206.26-10.56 206.26-5.90L206.26-5.90L206.26-5.90Q206.26-4.37 206.77-3.36L206.77-3.36L206.77-3.36Q207.27-2.36 208.62-2.36L208.62-2.36L208.62-2.36Q209.98-2.36 210.84-3.01L210.84-3.01L210.84-3.01Q211.69-3.66 212.34-5.19L212.34-5.19L212.34-5.19Q213.52-7.91 214.47-12.95L214.47-12.95L214.47-12.95Q215.41-18.00 215.50-20.18L215.50-20.18L215.50-20.18Q215.59-22.36 215.59-23.98L215.59-23.98L215.59-23.98Q215.59-25.61 215.11-26.67L215.11-26.67L215.11-26.67Q214.64-27.73 213.31-27.73L213.31-27.73L213.31-27.73Q211.99-27.73 211.10-26.90L211.10-26.90L211.10-26.90Q210.22-26.08 209.51-24.49ZM244.08-3.25L244.08-3.25L244.08-3.25Q242.25 1.18 236.41 1.18L236.41 1.18L236.41 1.18Q233.46 1.18 231.58-0.89L231.58-0.89L231.58-0.89Q230.04-2.60 230.04-4.54L230.04-4.54L230.04-4.54Q230.04-8.97 232.11-18.64L232.11-18.64L236.41-41.30L248.39-42.48L242.67-12.63L242.67-12.63Q241.66-8.26 241.66-6.73L241.66-6.73L241.66-6.73Q241.66-3.36 244.08-3.25ZM263.20-3.25L263.20-3.25L263.20-3.25Q261.37 1.18 255.53 1.18L255.53 1.18L255.53 1.18Q252.58 1.18 250.69-0.89L250.69-0.89L250.69-0.89Q249.16-2.60 249.16-4.54L249.16-4.54L249.16-4.54Q249.16-8.97 251.22-18.64L251.22-18.64L255.53-41.30L267.51-42.48L261.78-12.63L261.78-12.63Q260.78-8.26 260.78-6.73L260.78-6.73L260.78-6.73Q260.78-3.36 263.20-3.25ZM270.78-1.77L270.78-1.77L270.78-1.77Q269.39-3.30 268.77-5.72L268.77-5.72L268.77-5.72Q268.16-8.14 268.16-12.10L268.16-12.10L268.16-12.10Q268.16-16.05 269.51-19.65L269.51-19.65L269.51-19.65Q270.87-23.25 273.35-25.84L273.35-25.84L273.35-25.84Q278.42-31.27 286.80-31.27L286.80-31.27L286.80-31.27Q289.81-31.27 291.99-30.27L291.99-30.27L302.08-31.27L297.71-8.26L297.71-8.26Q297.54-7.55 297.54-6.25L297.54-6.25L297.54-6.25Q297.54-4.96 298.33-4.13L298.33-4.13L298.33-4.13Q299.13-3.30 300.31-3.19L300.31-3.19L300.31-3.19Q299.72-1.18 297.57 0L297.57 0L297.57 0Q295.41 1.18 292.99 1.18L292.99 1.18L292.99 1.18Q290.57 1.18 288.95 0.27L288.95 0.27L288.95 0.27Q287.33-0.65 286.86-2.18L286.86-2.18L286.86-2.18Q285.91-0.71 283.91 0.24L283.91 0.24L283.91 0.24Q281.90 1.18 279.22 1.18L279.22 1.18L279.22 1.18Q276.53 1.18 274.35 0.47L274.35 0.47L274.35 0.47Q272.17-0.24 270.78-1.77ZM283.23-25.72L283.23-25.72L283.23-25.72Q282.55-24.66 281.96-22.86L281.96-22.86L281.96-22.86Q281.37-21.06 280.40-16.25L280.40-16.25L280.40-16.25Q279.42-11.45 279.42-8.02L279.42-8.02L279.42-8.02Q279.42-4.60 279.96-3.60L279.96-3.60L279.96-3.60Q280.49-2.60 281.43-2.60L281.43-2.60L281.43-2.60Q283.32-2.60 284.70-4.40L284.70-4.40L284.70-4.40Q286.09-6.20 286.62-9.38L286.62-9.38L289.75-26.67L289.75-26.67Q288.51-27.73 287.06-27.73L287.06-27.73L287.06-27.73Q285.62-27.73 284.76-27.26L284.76-27.26L284.76-27.26Q283.91-26.79 283.23-25.72ZM309.22-24.66L309.22-24.66L309.22-24.66Q311.23-27.49 314.26-29.38L314.26-29.38L314.26-29.38Q317.30-31.27 321.02-31.27L321.02-31.27L321.02-31.27Q324.74-31.27 326.51-30.09L326.51-30.09L338.07-31.27L334.06-8.61L334.06-8.61Q331.99 2.95 327.63 7.49L327.63 7.49L327.63 7.49Q323.44 11.80 315.30 11.80L315.30 11.80L315.30 11.80Q309.10 11.80 305.56 9.85L305.56 9.85L305.56 9.85Q302.02 7.91 302.02 4.66L302.02 4.66L302.02 4.66Q302.02 2.24 303.85 0.86L303.85 0.86L303.85 0.86Q305.68-0.53 308.51-0.53L308.51-0.53L308.51-0.53Q310.99-0.53 312.88 0.59L312.88 0.59L312.88 0.59Q314.00 1.18 314.53 2.01L314.53 2.01L314.53 2.01Q313.17 3.19 313.17 5.13L313.17 5.13L313.17 5.13Q313.17 7.67 315.53 7.67L315.53 7.67L315.53 7.67Q319.49 7.67 321.73-1.65L321.73-1.65L321.73-1.65Q322.38-4.19 322.91-6.73L322.91-6.73L322.91-6.73Q320.25-3.48 314.23-3.48L314.23-3.48L314.23-3.48Q310.05-3.48 307.63-5.49L307.63-5.49L307.63-5.49Q305.21-7.49 305.21-12.21L305.21-12.21L305.21-12.21Q305.21-15.16 306.21-18.50L306.21-18.50L306.21-18.50Q307.21-21.83 309.22-24.66ZM316.89-12.04L316.89-12.04L316.89-12.04Q316.89-8.02 318.95-8.02L318.95-8.02L318.95-8.02Q320.37-8.02 321.73-9.56L321.73-9.56L321.73-9.56Q322.79-10.80 323.20-12.63L323.20-12.63L326.21-27.79L326.21-27.79Q325.92-27.85 325.62-27.97L325.62-27.97L325.62-27.97Q325.03-28.20 324.26-28.20L324.26-28.20L324.26-28.20Q320.67-28.20 318.54-22.30L318.54-22.30L318.54-22.30Q316.89-17.70 316.89-12.04ZM364.27-9.97L364.27-9.97L364.27-9.97Q365.74-8.97 365.74-6.76L365.74-6.76L365.74-6.76Q365.74-4.54 364.62-3.13L364.62-3.13L364.62-3.13Q363.50-1.71 361.67-0.77L361.67-0.77L361.67-0.77Q357.89 1.18 353.82 1.18L353.82 1.18L353.82 1.18Q349.75 1.18 347.36 0.30L347.36 0.30L347.36 0.30Q344.97-0.59 343.38-2.24L343.38-2.24L343.38-2.24Q340.25-5.37 340.25-11.09L340.25-11.09L340.25-11.09Q340.25-20.00 345.09-25.43L345.09-25.43L345.09-25.43Q350.28-31.27 359.31-31.27L359.31-31.27L359.31-31.27Q364.92-31.27 367.69-28.91L367.69-28.91L367.69-28.91Q369.75-27.14 369.75-24.25L369.75-24.25L369.75-24.25Q369.75-13.87 351.82-13.87L351.82-13.87L351.82-13.87Q351.58-12.33 351.58-11.03L351.58-11.03L351.58-11.03Q351.58-8.32 352.79-7.29L352.79-7.29L352.79-7.29Q354.00-6.25 356.24-6.25L356.24-6.25L356.24-6.25Q358.48-6.25 360.87-7.29L360.87-7.29L360.87-7.29Q363.26-8.32 364.27-9.97ZM352.23-16.40L352.23-16.40L352.23-16.40Q356.42-16.40 358.84-19.00L358.84-19.00L358.84-19.00Q361.26-21.48 361.26-25.43L361.26-25.43L361.26-25.43Q361.26-26.79 360.76-27.52L360.76-27.52L360.76-27.52Q360.25-28.26 359.25-28.26L359.25-28.26L359.25-28.26Q358.25-28.26 357.39-27.88L357.39-27.88L357.39-27.88Q356.54-27.49 355.65-26.20L355.65-26.20L355.65-26.20Q353.47-23.25 352.23-16.40Z" fill="url(#editing-sticker-gradient)" stroke="#000" stroke-width="2.5"></path></g></g><style>text {
  font-size: 64px;
  font-family: Arial Black;
  dominant-baseline: central;
  text-anchor: middle;
}</style></svg>